<svg id="Calque_1" data-name="Calque 1" xmlns="http://www.w3.org/2000/svg" viewBox="0 0 543.05 219.34"><defs><style>.cls-1{fill:#0095ff;}.cls-2{fill:none;stroke:#000;stroke-miterlimit:10;}.cls-3{fill:#900000;}</style></defs><path class="cls-1" d="M81,219.34V181.28a78.95,78.95,0,0,1-45.13-65.23q-.25-3.12-.25-6.31c0-2.12.08-4.23.25-6.3A79,79,0,0,1,66.46,47.12,79.39,79.39,0,0,1,81,38.2V0A114.64,114.64,0,0,0,35.91,26.31q-2.27,2.14-4.4,4.39A114.82,114.82,0,0,0,10.06,62.56l-.52,1.17,0,.06A112.06,112.06,0,0,0,2,89a119.93,119.93,0,0,0-2,20.25c0,1.43,0,2.87.12,4.31a127.9,127.9,0,0,0,5.14,30c.35,1.15.72,2.29,1.11,3.43A108.6,108.6,0,0,0,10.84,158,111.32,111.32,0,0,0,19,172.54a120.55,120.55,0,0,0,12.94,16.21l.31.32q1.8,1.91,3.67,3.7A108.36,108.36,0,0,0,81,219.34Z"/><path class="cls-1" d="M493.92,45.15V0H446.78a43.8,43.8,0,0,1,19.71,4.82l.07,0a57.78,57.78,0,0,1,8.49,5.32h.45v.34a48.11,48.11,0,0,1,9.14,9.23,44.81,44.81,0,0,1,4.76,7.93,50.4,50.4,0,0,1,3.5,10.11A44.49,44.49,0,0,1,493.92,45.15Z"/><path d="M105.52,100.17V98.65L109,97.28a6.9,6.9,0,0,0,3.57-2.81,9.82,9.82,0,0,0,1-4.78V10.47a11.4,11.4,0,0,0-.83-4.78A6.27,6.27,0,0,0,109,2.88l-3.49-1.36V0h72.7l.91,23.37h-1.52L171.08,9.11a19.48,19.48,0,0,0-2.88-4.4A5.82,5.82,0,0,0,163.65,3H136.33V46.9h16.24a6.3,6.3,0,0,0,4.63-1.6A14.22,14.22,0,0,0,160,41l3-6.07h1.52V62.22H163l-3-6.37a18.05,18.05,0,0,0-2.88-4.33,6,6,0,0,0-4.55-1.59H136.33v47.2H167a6.55,6.55,0,0,0,4.71-1.59,11.79,11.79,0,0,0,2.73-4.48l6.22-14.27h1.52l-.91,23.38Z"/><path d="M226.17,100.17a39.36,39.36,0,0,1-18.74-4.48,33.2,33.2,0,0,1-13.36-13q-4.92-8.58-4.93-21t5.39-21A35.94,35.94,0,0,1,209,27.24a42.84,42.84,0,0,1,19.8-4.63,34.57,34.57,0,0,1,14.88,2.89A22.69,22.69,0,0,1,252.88,33a16.74,16.74,0,0,1,3.19,9.64,8.48,8.48,0,0,1-2.58,6.6,9.53,9.53,0,0,1-6.68,2.35,8.93,8.93,0,0,1-7.13-3.19,14.43,14.43,0,0,1-3.19-8.34,33.85,33.85,0,0,1,.15-5.69,18.29,18.29,0,0,0,0-4.79,5.35,5.35,0,0,0-1.89-3.41,6.5,6.5,0,0,0-3.57-.84q-9.26,0-14.34,8.05T211.76,59q0,15.33,5.69,23.44T235,90.6c4.75,0,8.59-.85,11.53-2.58a31.45,31.45,0,0,0,8.5-7.74l1.52,1.22a29.08,29.08,0,0,1-11.69,13.81A34.88,34.88,0,0,1,226.17,100.17Z"/><path d="M345.16,100.17V98.74l1.82-.58q5.46-1.71,5.46-7.14V14.57a6.83,6.83,0,0,0-1.21-4.35A7.61,7.61,0,0,0,347,8l-2-.43V6.14L372.78,0l1.82,1.29-.61,20V70.16c0,3.52,0,7,.08,10.5s.07,6.93.07,10.36a8.08,8.08,0,0,0,1.22,4.64,7.12,7.12,0,0,0,4.09,2.65l2,.43v1.43Z"/><path d="M426.2,22.61q9.85,0,16.84,4a27.4,27.4,0,0,1,10.7,10.92,32.61,32.61,0,0,1,3.72,15.71c0,1.11,0,2.25-.15,3.41a13.17,13.17,0,0,1-.61,3.12H411.48q.15,16.38,5.84,23.59t16.92,7.21q7.59,0,12.29-2.42A30.13,30.13,0,0,0,455.34,81l1.51,1.37a34.84,34.84,0,0,1-12.52,13q-7.81,4.71-18.74,4.71a38.79,38.79,0,0,1-19.12-4.63,32.67,32.67,0,0,1-13.05-13.28q-4.71-8.66-4.71-20.64,0-12.45,5.46-21.17a36.8,36.8,0,0,1,14-13.28A37.8,37.8,0,0,1,426.2,22.61Zm-.46,3a11.22,11.22,0,0,0-7.51,2.65q-3.12,2.67-4.86,9.41t-1.89,19h25.95q1.51-16.55-1.22-23.83T425.74,25.65Z"/><path d="M105.52,219.34v-1.52l3-1.06a6.4,6.4,0,0,0,4-2.73,10.35,10.35,0,0,0,1-4.86V129.64a9.56,9.56,0,0,0-1.06-4.85,7.2,7.2,0,0,0-4.1-2.88l-2.88-1.22v-1.52H142.4q22.6,0,32.7,8.27t10.1,21.78A31.1,31.1,0,0,1,181,165.08q-4.17,7.21-13.73,11.46t-25.8,4.25h-5.16v27.92q0,5.92,5.92,7.74l4.55,1.37v1.52Zm30.81-41.59h5.77q7.43,0,12.14-2.42t7-8.5q2.28-6.08,2.27-16.85T161,133q-2.51-6.06-7.36-8.42a27.74,27.74,0,0,0-12.14-2.35h-5.16Z"/><path d="M189.75,219.34v-1.52l1.82-.61a7.32,7.32,0,0,0,5.46-7.59V128.43a6.12,6.12,0,0,0-5.46-7l-2-.46v-1.51L217.37,113l1.82,1.37-.6,21.24v51.91q0,5.61.07,11.15c.05,3.7.08,7.36.08,11a9,9,0,0,0,1.21,4.94,7.19,7.19,0,0,0,4.1,2.8l2,.46v1.52Z"/><path d="M270.79,141.79q9.87,0,16.85,4a27.47,27.47,0,0,1,10.7,10.92,32.75,32.75,0,0,1,3.71,15.71q0,1.68-.15,3.42a13.73,13.73,0,0,1-.6,3.11H256.07q.15,16.4,5.84,23.6t16.93,7.21q7.57,0,12.29-2.43a30.22,30.22,0,0,0,8.8-7.13l1.52,1.36a34.84,34.84,0,0,1-12.52,13q-7.81,4.71-18.75,4.71a38.85,38.85,0,0,1-19.12-4.63A32.67,32.67,0,0,1,238,201.43q-4.71-8.66-4.7-20.64,0-12.45,5.46-21.17a36.66,36.66,0,0,1,14-13.28A37.75,37.75,0,0,1,270.79,141.79Zm-.45,3a11.21,11.21,0,0,0-7.52,2.66q-3.1,2.66-4.85,9.41t-1.9,19H282q1.51-16.53-1.21-23.82T270.34,144.82Z"/><path d="M309.64,219.34v-1.52l2.13-.61q5.31-1.52,5.31-7.43V162.27a9.12,9.12,0,0,0-1.06-4.93q-1.06-1.59-4.1-2.2l-2.28-.61V153l25.95-8.81,1.52,1.52,1.22,9.11a47.53,47.53,0,0,1,12-7.74,31.69,31.69,0,0,1,13.21-3q10,0,15.4,5.47t5.39,16.69v43.71q0,5.91,5.77,7.43l1.36.46v1.52H355.63v-1.52l2-.61q5.31-1.67,5.31-7.43V161.36q0-9.71-9.71-9.71-6.68,0-14.57,6.68v51.6q0,5.91,5.31,7.43l1.37.46v1.52Z"/><path d="M424.07,219.34a25.57,25.57,0,0,1-10.85-2.28,16.73,16.73,0,0,1-7.74-7.36q-2.81-5.08-2.66-13.43l.46-39c0-2.33-.41-4-1.21-5a6.67,6.67,0,0,0-3.8-2.13l-1.82-.6V148l27.17-5.31,1.51,1.51-.75,21.55v36.58q0,4.86,2.8,7.13a10.84,10.84,0,0,0,7.06,2.28,21.9,21.9,0,0,0,7.59-1.22,27.06,27.06,0,0,0,6.68-3.64l.6-49.47q0-3.49-1.06-4.93a6.32,6.32,0,0,0-3.95-2.05l-1.51-.46v-1.52l26.56-5.76,1.51,1.51-.45,21.55v41.13a11.72,11.72,0,0,0,.91,5.16,7.07,7.07,0,0,0,3.94,3l1.52.45v1.52L450,218.58l-1.36-9a53.78,53.78,0,0,1-10.85,6.91A31.47,31.47,0,0,1,424.07,219.34Z"/><path d="M509.82,219.34a47.36,47.36,0,0,1-13.36-1.75,62.21,62.21,0,0,1-10.93-4.32l.16-18.06h1.51l5.16,9.1a27.32,27.32,0,0,0,7.36,9,16.8,16.8,0,0,0,10.25,3c4.86,0,8.77-1.08,11.76-3.26a10.28,10.28,0,0,0,4.48-8.73,11.09,11.09,0,0,0-3.19-8.19q-3.18-3.19-11.84-5.77l-6.37-2q-9.26-2.73-14.57-8.5a20.07,20.07,0,0,1-5.31-14.12,21.86,21.86,0,0,1,7.89-17q7.89-7,22.61-7a46.52,46.52,0,0,1,11.16,1.29A43.78,43.78,0,0,1,536.68,147l-.91,16.39h-1.52l-5.31-9.41a22.88,22.88,0,0,0-5.69-7.06c-1.88-1.37-4.68-2.05-8.42-2.05a17.79,17.79,0,0,0-9.72,2.89,9.16,9.16,0,0,0-4.55,8.19,9.89,9.89,0,0,0,3.87,8.2q3.87,3,11.46,5.61l6.83,2q10.92,3.34,15.63,9.19a21.69,21.69,0,0,1,4.7,14,21.26,21.26,0,0,1-8.72,17.76Q525.6,219.34,509.82,219.34Z"/><path class="cls-2" d="M341.91,60.17c0-.35,0-.7,0-1.05A39.81,39.81,0,0,0,304,20.6c-.33,0-.67,0-1,0l-.89,0H302l-.89,0h0A39.89,39.89,0,0,0,262.2,60.33v.13c0,.3,0,.6,0,.9a39.83,39.83,0,0,0,38.93,38.81h2.05A39.75,39.75,0,0,0,341.91,60.17Z"/><path class="cls-3" d="M323.62,60.26c0-.19,0-.38,0-.57a21.53,21.53,0,0,0-20.5-20.84l-.54,0h-1.05a21.59,21.59,0,0,0-21,21.51v.07c0,.17,0,.33,0,.49a21.54,21.54,0,0,0,21.06,21h1.11A21.51,21.51,0,0,0,323.62,60.26Z"/></svg>